<?xml version="1.0" standalone="no"?>
<!DOCTYPE svg PUBLIC "-//W3C//DTD SVG 20010904//EN"
 "http://www.w3.org/TR/2001/REC-SVG-20010904/DTD/svg10.dtd">
<svg version="1.0" xmlns="http://www.w3.org/2000/svg"
 width="800.000000pt" height="800.000000pt" viewBox="0 0 800.000000 800.000000"
 preserveAspectRatio="xMidYMid meet">
<metadata>
Created by potrace 1.11, written by Peter Selinger 2001-2013
</metadata>
<g transform="translate(0.000000,800.000000) scale(0.100000,-0.100000)"
fill="#000000" stroke="none">
<path d="M5391 6328 c-8 -18 -32 -71 -53 -118 -54 -117 -62 -135 -102 -226
-39 -91 -278 -625 -371 -829 -12 -27 -77 -174 -145 -325 -67 -151 -124 -277
-126 -279 -2 -2 -25 20 -51 49 -127 140 -315 214 -543 213 -89 -1 -141 -4
-155 -12 -5 -3 -16 -6 -25 -7 -41 -4 -76 -15 -111 -34 -22 -11 -45 -20 -51
-20 -13 0 -129 -77 -172 -115 -16 -14 -32 -25 -35 -25 -3 0 -6 165 -6 367 l0
368 -375 0 -375 0 0 -932 0 -932 -35 -3 c-19 -2 -73 -2 -120 0 l-85 3 0 212 0
212 -98 5 c-53 3 -97 3 -97 0 0 -3 -54 -3 -120 0 -66 3 -120 1 -120 -3 0 -4
-9 -3 -20 3 -13 7 -20 7 -20 1 0 -6 -6 -8 -12 -6 -9 3 -51 -71 -121 -210
l-108 -215 -37 0 c-123 -2 -476 1 -478 3 -2 1 33 74 78 162 140 279 494 978
679 1342 99 193 176 353 172 355 -5 3 -190 4 -413 4 l-404 -1 -51 -100 c-28
-55 -174 -343 -324 -640 -151 -297 -341 -671 -422 -832 l-149 -292 0 -360 0
-361 673 -2 672 -3 1 -173 c1 -95 4 -176 8 -179 8 -8 705 -11 707 -3 1 3 2 84
3 180 l1 175 120 0 120 0 0 -177 c0 -153 2 -178 15 -179 49 -3 717 -4 727 -1
8 3 11 188 12 735 0 403 3 750 6 772 19 113 90 191 205 224 57 17 139 16 156
-2 4 -4 14 -7 21 -7 14 0 95 -51 119 -75 18 -18 51 -87 59 -123 4 -19 7 -170
7 -337 l1 -304 26 -3 c14 -2 45 -1 68 0 39 4 42 6 63 55 29 68 476 1069 502
1124 20 42 20 42 49 28 61 -32 104 -95 125 -183 17 -74 15 -803 -2 -910 -20
-120 -23 -132 -50 -215 -61 -192 -167 -362 -320 -514 -57 -57 -108 -103 -113
-103 -5 0 -16 -6 -23 -12 -19 -18 -69 -52 -96 -67 -20 -11 -30 -7 -85 25 -34
21 -63 42 -65 46 -2 4 -8 8 -13 8 -5 0 -37 17 -72 39 -62 38 -63 38 -164 37
-56 -1 -104 -4 -108 -7 -4 -5 94 -68 208 -134 9 -5 135 -82 280 -170 144 -88
270 -164 279 -170 21 -12 503 -305 751 -456 99 -60 183 -109 187 -109 5 0 8
30 7 67 l-2 66 -309 189 c-170 103 -311 188 -313 188 -3 0 -17 8 -31 19 -15
10 -87 55 -161 100 l-134 81 84 1 c46 0 91 2 99 3 8 2 40 7 70 11 79 10 84 11
163 35 86 26 221 90 261 125 16 14 33 25 37 25 14 0 143 133 177 182 l31 45
66 -1 c36 -1 71 1 77 5 6 4 24 3 39 -1 16 -5 31 -5 34 0 3 5 16 6 28 2 26 -9
84 -9 93 0 3 4 16 3 28 -1 25 -8 253 -8 261 1 4 3 19 3 35 -2 18 -5 32 -4 39
3 6 6 11 7 11 2 0 -12 120 -12 138 -1 7 4 12 4 12 -1 0 -4 55 -7 122 -6 68 2
134 2 148 2 14 -1 37 -1 53 -1 31 0 29 22 29 -230 l1 -178 333 0 334 0 0 203
0 203 83 -1 c45 -1 90 3 101 8 12 6 16 5 12 -1 -3 -6 2 -8 13 -5 18 4 18 20
17 336 l-1 332 -95 2 c-52 1 -103 2 -112 2 -17 1 -18 17 -18 201 0 153 -3 200
-12 201 -7 0 -112 1 -232 1 l-220 1 -100 -199 c-55 -109 -101 -200 -102 -202
-4 -8 -484 -6 -484 2 0 4 55 115 121 245 67 130 169 328 227 441 146 286 280
547 417 813 64 126 114 232 110 235 -11 11 -746 8 -760 -3 -7 -5 -84 -149
-170 -320 -87 -170 -212 -413 -276 -540 -65 -126 -149 -289 -186 -362 -37 -72
-69 -131 -70 -129 -1 1 -3 118 -3 260 -1 226 -5 287 -26 409 -13 79 -75 220
-134 306 -90 134 -248 260 -393 316 -54 20 -54 17 -4 125 16 36 58 130 94 210
35 79 70 158 78 175 7 16 26 57 40 90 15 33 88 195 162 360 74 165 137 308
140 318 5 15 -2 17 -58 17 -63 0 -64 -1 -78 -32z"/>
</g>
</svg>
